<svg xmlns="http://www.w3.org/2000/svg" width="194.804" height="49.967" viewBox="0 0 194.804 49.967"><g transform="translate(-17.112 -15.958)"><path d="M74.822,35.866v9.971H72.41V35.866Z" fill="#fff"/><path d="M85.823,45.837H83.411l-4.034-6.121v6.121H76.965V35.866h2.412l4.034,6.177V35.866h2.412Z" fill="#fff"/><path d="M94.73,44.483a2.833,2.833,0,0,1-1.185,1.058,4.178,4.178,0,0,1-1.9.4,4.462,4.462,0,0,1-2.764-.818A2.964,2.964,0,0,1,87.7,42.833h2.567a1.357,1.357,0,0,0,.4.889,1.236,1.236,0,0,0,.881.324,1.025,1.025,0,0,0,.734-.254.892.892,0,0,0,.268-.677.876.876,0,0,0-.247-.634,1.913,1.913,0,0,0-.614-.417q-.366-.162-1.015-.388a12.5,12.5,0,0,1-1.545-.627,2.845,2.845,0,0,1-1.029-.9,2.94,2.94,0,0,1,.021-3.1,2.878,2.878,0,0,1,1.248-.994A4.559,4.559,0,0,1,91.2,35.71a4.1,4.1,0,0,1,2.644.79,3.014,3.014,0,0,1,1.108,2.172h-2.61a1.344,1.344,0,0,0-.359-.783A1.062,1.062,0,0,0,91.2,37.6a1.006,1.006,0,0,0-.684.226.829.829,0,0,0-.261.663.844.844,0,0,0,.232.6,1.79,1.79,0,0,0,.586.4q.353.155,1.015.394a11.279,11.279,0,0,1,1.566.642,3,3,0,0,1,1.044.924,2.64,2.64,0,0,1,.437,1.58A2.748,2.748,0,0,1,94.73,44.483Z" fill="#fff"/><path d="M104.116,35.866v1.918h-2.708v8.053H98.982V37.784H96.3V35.866Z" fill="#fff"/><path d="M108.024,35.866v9.971h-2.412V35.866Z" fill="#fff"/><path d="M117.333,35.866v1.918h-2.708v8.053H112.2V37.784h-2.68V35.866Z" fill="#fff"/><path d="M121.169,35.866V41.62a2.265,2.265,0,0,0,.444,1.509,1.856,1.856,0,0,0,2.581,0,2.259,2.259,0,0,0,.445-1.509V35.866h2.412V41.62A4.749,4.749,0,0,1,126.5,44,3.586,3.586,0,0,1,125,45.45a4.665,4.665,0,0,1-2.151.486,4.494,4.494,0,0,1-2.116-.48A3.4,3.4,0,0,1,119.293,44a4.985,4.985,0,0,1-.521-2.383V35.866Z" fill="#fff"/><path d="M136.3,35.866v1.918H133.6v8.053h-2.426V37.784h-2.68V35.866Z" fill="#fff"/><path d="M145.1,36.366a4.787,4.787,0,0,1,1.813,1.82,5.54,5.54,0,0,1-.008,5.267,4.807,4.807,0,0,1-1.819,1.827,5.269,5.269,0,0,1-5.092,0,4.807,4.807,0,0,1-1.819-1.827,5.511,5.511,0,0,1,0-5.267,4.824,4.824,0,0,1,1.819-1.82,5.3,5.3,0,0,1,5.106,0Zm-4.443,2.355a3.482,3.482,0,0,0,0,4.183,2.667,2.667,0,0,0,3.759,0,3.457,3.457,0,0,0,.007-4.175,2.68,2.68,0,0,0-3.766-.008Z" fill="#fff"/><path d="M157.826,45.837l-2.158-3.765h-.55v3.765h-2.412V35.866h4.119a4.431,4.431,0,0,1,2,.409,2.822,2.822,0,0,1,1.227,1.121,3.217,3.217,0,0,1,.409,1.629,2.891,2.891,0,0,1-.6,1.847,3.064,3.064,0,0,1-1.741,1.044l2.369,3.921Zm-2.708-5.416h1.5a1.5,1.5,0,0,0,1.058-.317,1.226,1.226,0,0,0,.338-.939,1.243,1.243,0,0,0-.345-.93,1.447,1.447,0,0,0-1.051-.338h-1.5Z" fill="#fff"/><path d="M168.334,44.018H164.6l-.62,1.819h-2.539l3.653-9.9h2.778l3.654,9.9h-2.568Zm-.621-1.834-1.241-3.667-1.255,3.667Z" fill="#fff"/><path d="M175.344,43.99h3.216v1.847h-5.628V35.866h2.412Z" fill="#fff"/><path d="M186.917,44.483a2.839,2.839,0,0,1-1.185,1.058,4.178,4.178,0,0,1-1.9.4,4.465,4.465,0,0,1-2.765-.818,2.964,2.964,0,0,1-1.185-2.285h2.568a1.352,1.352,0,0,0,.4.889,1.234,1.234,0,0,0,.881.324,1.023,1.023,0,0,0,.733-.254.889.889,0,0,0,.268-.677.875.875,0,0,0-.246-.634,1.924,1.924,0,0,0-.614-.417q-.367-.162-1.016-.388a12.476,12.476,0,0,1-1.544-.627,2.837,2.837,0,0,1-1.029-.9,2.934,2.934,0,0,1,.021-3.1,2.866,2.866,0,0,1,1.248-.994,4.557,4.557,0,0,1,1.826-.346,4.1,4.1,0,0,1,2.645.79,3.009,3.009,0,0,1,1.107,2.172h-2.609a1.339,1.339,0,0,0-.36-.783,1.062,1.062,0,0,0-.783-.289,1.006,1.006,0,0,0-.684.226.828.828,0,0,0-.26.663.84.84,0,0,0,.232.6,1.786,1.786,0,0,0,.585.4q.353.155,1.016.394a11.313,11.313,0,0,1,1.565.642,2.984,2.984,0,0,1,1.044.924,2.633,2.633,0,0,1,.437,1.58A2.747,2.747,0,0,1,186.917,44.483Z" fill="#fff"/><path d="M191.55,37.784v2.088h3.371v1.819H191.55V43.9h3.794v1.932h-6.206V35.866h6.206v1.918Z" fill="#fff"/><path d="M203.693,35.866v1.918H199.6V39.97h3.159V41.8H199.6v4.034h-2.412V35.866Z" fill="#fff"/><path d="M211.916,35.866v1.918h-4.09V39.97h3.159V41.8h-3.159v4.034h-2.412V35.866Z" fill="#fff"/><path d="M17.112,15.958H50.254L42.288,25H26.156v3.286H39.394l-7.966,9.044H26.156v5.985L17.112,53.6Z" fill="#fff"/><path d="M31.541,28.287H64.683l-7.966,9.044H40.586v3.286H53.823L45.857,49.66H40.586v5.985l-9.044,10.28Z" fill="#fff"/></g></svg>