<svg xmlns="http://www.w3.org/2000/svg" xmlns:xlink="http://www.w3.org/1999/xlink" width="375" height="291" viewBox="0 0 375 291"><defs><clipPath id="a"><rect width="375" height="291" transform="translate(0 2004)" fill="#fff" stroke="#707070" stroke-width="1"/></clipPath><linearGradient id="b" x1="0.009" y1="0.5" x2="1.302" y2="0.5" gradientUnits="objectBoundingBox"><stop offset="0" stop-color="#e1f5fe"/><stop offset="0.182" stop-color="#dcf3fd"/><stop offset="0.399" stop-color="#cdeefd"/><stop offset="0.633" stop-color="#b5e6fc"/><stop offset="0.877" stop-color="#94dafa"/><stop offset="1" stop-color="#81d4fa"/></linearGradient><linearGradient id="c" x1="0.989" y1="0.5" x2="-0.309" y2="0.5" xlink:href="#b"/><linearGradient id="d" x1="0.009" y1="0.5" x2="1.302" y2="0.5" gradientUnits="objectBoundingBox"><stop offset="0" stop-color="#e1f5fe"/><stop offset="0.276" stop-color="#dcf3fd"/><stop offset="0.485" stop-color="#cdeefd"/><stop offset="0.633" stop-color="#b5e6fc"/><stop offset="0.877" stop-color="#94dafa"/><stop offset="1" stop-color="#81d4fa"/></linearGradient></defs><g transform="translate(0 -2004)" clip-path="url(#a)"><g transform="translate(-590.26 1755.035)"><rect width="511.483" height="191.804" transform="translate(522.926 248.965)" fill="#0277bd"/><g transform="translate(895.973 248.971)"><path d="M856.508,387.04l21.842,23.981H835.4l-.34-15.205Z" transform="translate(-820.723 -219.222)" fill="#01579b"/><path d="M950.09,248.97v191.8H880.031l-14.355-19.35L882.5,393.135l19.751-2.188,32.915,15.594-32.185-19.01-31.2-1.957,3.416-19.01-18.536-4.388-2.929-12.191,15.606-6.831-23.9,2.929-15.594-17.551,9.748-16.093,2.443-16.093,19.01-20.48-8.01-26.9Z" transform="translate(-829.845 -248.97)" fill="#01579b"/></g><path d="M643.2,423.85l8.459,16.919H522.926V248.97H657.258l-4.595,13.5L634.7,267.7v16.98l-16.336,4.582v24.175H597.458l31.03,7.84L634.7,335l20.249,6.527,18.293,23.859-42.468,25.8-7.183,22.863-32.755,9.8Z" transform="translate(0 0.001)" fill="#01579b"/><g transform="translate(912.2 248.971)"><path d="M871.476,387.04l21.842,23.981H850.364l-.34-15.205Z" transform="translate(-841.725 -219.222)" fill="#e1f5fe"/><path d="M965.059,248.97v191.8H895l-14.355-19.35,16.822-28.284,19.751-2.188,32.915,15.594-32.185-19.01-31.2-1.957,3.415-19.01-18.536-4.388L868.7,349.987l15.607-6.831-23.9,2.929-15.594-17.551,9.748-16.093L857,296.349l19.01-20.48L868,248.97Z" transform="translate(-842.848 -248.97)" fill="url(#b)"/><path d="M872.571,275.868l-8.5,9.152-3.282-36.05h3.768Z" transform="translate(-839.405 -248.97)" fill="#81d4fa"/><path d="M855.639,287.949l-3.13,7.759-1.384,11.758,2.077-3.427Z" transform="translate(-841.488 -240.572)" fill="#81d4fa"/><path d="M845.158,314.427l-1.962,3.331,12.053,18.124,5.511-3.9Z" transform="translate(-843.196 -234.867)" fill="#81d4fa"/><path d="M865.5,332.078l-5.842,5.229,6.33,11.7,2.438-4.741Z" transform="translate(-839.649 -231.064)" fill="#81d4fa"/><path d="M877.02,328.866l-23.907,4.421,5.511-3.9,23.892-2.926Z" transform="translate(-841.059 -232.274)" fill="#4fc3f7"/><path d="M885.835,346.5l-.528,2.942-20.438-2.59,2.438-4.741Z" transform="translate(-838.527 -228.903)" fill="#4fc3f7"/><path d="M879.31,361.363l2.191,4.421,23.844,1.436,4.44-.493,32.913,15.6-32.182-19.016Z" transform="translate(-835.415 -224.754)" fill="#4fc3f7"/><path d="M888.648,410.2h-.559L874.78,395.578l-.486-4.728Z" transform="translate(-836.496 -218.401)" fill="#4fc3f7"/><g transform="translate(13.233 123.101)"><path d="M865.246,350.25l14.818,3.039-5.621,15.8-20.359-5.332,13.109-8.19Z" transform="translate(-854.083 -350.25)" fill="#e1f5fe"/><path d="M855.906,366.7l-1.823-5.332,20.359,5.332,1.519,3.494Z" transform="translate(-854.083 -347.856)" fill="#4fc3f7"/><path d="M876.455,352.75l1.215,4.1-5.318,15.193-1.519-3.494Z" transform="translate(-850.474 -349.711)" fill="#81d4fa"/><path d="M863.4,350.25l-.73,2.482,1.944,3.293.732-.457Z" transform="translate(-852.234 -350.25)" fill="#81d4fa"/></g></g><g transform="translate(522.926 248.971)"><path d="M613.831,423.85l8.46,16.919H522.926V248.97H627.894l-4.595,13.5L605.335,267.7v16.98L589,289.262v24.175H568.093l31.031,7.84L605.335,335l20.249,6.527,18.293,23.859-42.468,25.8-7.183,22.863-44.437,18.293Z" transform="translate(-522.926 -248.97)" fill="url(#c)"/><path d="M611.73,248.97l-.827,15.959-5.4-2.455,4.594-13.5Z" transform="translate(-505.134 -248.97)" fill="#81d4fa"/><path d="M590.724,264.376v16.988l3.331,3.089,4.736-17.462Z" transform="translate(-508.319 -245.651)" fill="#81d4fa"/><path d="M581.981,285.788l-.853,23.231-3.843-2.727V282.116Z" transform="translate(-511.214 -241.828)" fill="#81d4fa"/><path d="M596.951,281.442l-14.97,5.157-4.7-3.672,16.335-4.574Z" transform="translate(-511.214 -242.639)" fill="#4fc3f7"/><path d="M614.089,262.531l-15.3,5.387-8.067-2.615,17.968-5.227Z" transform="translate(-508.319 -246.577)" fill="#4fc3f7"/><path d="M584.834,304.733l-18.072-1.04-6.679-1.687h20.908Z" transform="translate(-514.92 -237.543)" fill="#4fc3f7"/><path d="M585.618,308.457l4.857,3.8,6.412,11.554-5.062-1.633Z" transform="translate(-509.419 -236.153)" fill="#81d4fa"/><path d="M629.969,344.752l-3.639,10.936-31.579,20.359-7.252-5.5Z" transform="translate(-509.014 -228.333)" fill="#4fc3f7"/><path d="M581.586,388.845l4.606,2.685,9.833-20.055-7.252-5.5Z" transform="translate(-510.288 -223.76)" fill="#81d4fa"/><path d="M551.813,402.187l42.254-14.711-4.606-2.685-44.43,18.295Z" transform="translate(-518.164 -219.706)" fill="#4fc3f7"/><path d="M614.308,409.769h-8.131l-8.46-16.919,6.867,3.428Z" transform="translate(-506.812 -217.97)" fill="#4fc3f7"/><g transform="translate(74.624 40.288)"><path d="M585.907,282.558l-1.585,19.168,12.843,2.583,7.8-22.193Z" transform="translate(-584.322 -282.116)" fill="#e1f5fe"/><path d="M585.9,302.815l-1.575-4.565,12.843,2.583,1.637,5.207Z" transform="translate(-584.322 -278.64)" fill="#4fc3f7"/><path d="M602.687,282.116l2.756,7.3-8.917,20.1-1.637-5.207Z" transform="translate(-582.045 -282.116)" fill="#81d4fa"/></g><g transform="translate(86.439 136.168)"><path d="M600.348,374.066,622.793,361l-6.077,20.967,4.558,7.951-27.231-2.177Z" transform="translate(-594.043 -361)" fill="#e1f5fe"/><path d="M600.307,387.862,594.043,383l27.231,2.177,2.937,2.685Z" transform="translate(-594.043 -356.26)" fill="#4fc3f7"/><path d="M618.774,361l3.241,6.049-5.672,13.6,3.849,11.952-2.937-2.685-4.558-7.951Z" transform="translate(-590.024 -361)" fill="#81d4fa"/></g></g></g><g transform="translate(-590.26 1946.035)"><rect width="498.823" height="191.804" transform="translate(522.926 248.965)" fill="#0277bd"/><g transform="translate(883.314 248.971)"><path d="M856.508,387.04l21.842,23.981H835.4l-.34-15.205Z" transform="translate(-828.723 -219.222)" fill="#01579b"/><path d="M950.09,248.97v191.8H880.031l-14.355-19.35L882.5,393.135l19.751-2.188,32.915,15.594-32.185-19.01-31.2-1.957,3.416-19.01-18.536-4.388-2.929-12.191,15.606-6.831-23.9,2.929-15.594-17.551,9.748-16.093,2.443-16.093,17.662-18.9-2.582-28.511Z" transform="translate(-829.845 -248.97)" fill="#01579b"/></g><path d="M643.2,423.85l8.459,16.919H522.926V248.97H650.258l2.405,13.5L634.7,267.7v16.98l-16.336,4.582v24.175H597.458l31.03,7.84L634.7,335l20.249,6.527,18.293,23.859-42.468,25.8-7.183,22.863-32.755,9.8Z" transform="translate(0 0.001)" fill="#01579b"/><g transform="translate(899.541 248.971)"><path d="M871.476,387.04l21.842,23.981H850.364l-.34-15.205Z" transform="translate(-841.725 -219.222)" fill="#e1f5fe"/><path d="M965.059,248.97v191.8H895l-14.355-19.35,16.822-28.284,19.751-2.188,32.915,15.594-32.185-19.01-31.2-1.957,3.415-19.01-18.536-4.388L868.7,349.987l15.607-6.831-23.9,2.929-15.594-17.551,9.748-16.093L857,296.349l8.413-16.332-1.234-31.049Z" transform="translate(-842.848 -248.97)" fill="url(#d)"/><path d="M855.639,287.949l-3.13,7.759-1.384,11.758,2.077-3.427Z" transform="translate(-841.488 -240.572)" fill="#81d4fa"/><path d="M845.158,314.427l-1.962,3.331,12.053,18.124,5.511-3.9Z" transform="translate(-843.196 -234.867)" fill="#81d4fa"/><path d="M865.5,332.078l-5.842,5.229,6.33,11.7,2.438-4.741Z" transform="translate(-839.649 -231.064)" fill="#81d4fa"/><path d="M877.02,328.866l-23.907,4.421,5.511-3.9,23.892-2.926Z" transform="translate(-841.059 -232.274)" fill="#4fc3f7"/><path d="M885.835,346.5l-.528,2.942-20.438-2.59,2.438-4.741Z" transform="translate(-838.527 -228.903)" fill="#4fc3f7"/><path d="M879.31,361.363l2.191,4.421,23.844,1.436,4.44-.493,32.913,15.6-32.182-19.016Z" transform="translate(-835.415 -224.754)" fill="#4fc3f7"/><path d="M888.648,410.2h-.559L874.78,395.578l-.486-4.728Z" transform="translate(-836.496 -218.401)" fill="#4fc3f7"/><g transform="translate(13.233 123.101)"><path d="M865.246,350.25l14.818,3.039-5.621,15.8-20.359-5.332,13.109-8.19Z" transform="translate(-854.083 -350.25)" fill="#e1f5fe"/><path d="M855.906,366.7l-1.823-5.332,20.359,5.332,1.519,3.494Z" transform="translate(-854.083 -347.856)" fill="#4fc3f7"/><path d="M876.455,352.75l1.215,4.1-5.318,15.193-1.519-3.494Z" transform="translate(-850.474 -349.711)" fill="#81d4fa"/><path d="M863.4,350.25l-.73,2.482,1.944,3.293.732-.457Z" transform="translate(-852.234 -350.25)" fill="#81d4fa"/></g></g><g transform="translate(522.926 248.971)"><path d="M613.831,423.85l8.46,16.919H522.926V248.97l98.991.008,1.382,13.5L605.335,267.7v16.98L589,289.262v24.175H568.093l31.031,7.84L605.335,335l20.249,6.527,18.293,23.859-42.468,25.8-7.183,22.863-44.437,18.293Z" transform="translate(-522.926 -248.97)" fill="url(#c)"/><path d="M612.027,248.97,610.9,264.929l-5.4-2.455-1.422-13.5Z" transform="translate(-505.134 -248.97)" fill="#4fc3f7"/><path d="M590.724,264.376v16.988l3.331,3.089,4.736-17.462Z" transform="translate(-508.319 -245.651)" fill="#81d4fa"/><path d="M581.981,285.788l-.853,23.231-3.843-2.727V282.116Z" transform="translate(-511.214 -241.828)" fill="#81d4fa"/><path d="M596.951,281.442l-14.97,5.157-4.7-3.672,16.335-4.574Z" transform="translate(-511.214 -242.639)" fill="#4fc3f7"/><path d="M614.089,262.531l-15.3,5.387-8.067-2.615,17.968-5.227Z" transform="translate(-508.319 -246.577)" fill="#4fc3f7"/><path d="M584.834,304.733l-18.072-1.04-6.679-1.687h20.908Z" transform="translate(-514.92 -237.543)" fill="#4fc3f7"/><path d="M585.618,308.457l4.857,3.8,6.412,11.554-5.062-1.633Z" transform="translate(-509.419 -236.153)" fill="#81d4fa"/><path d="M629.969,344.752l-3.639,10.936-31.579,20.359-7.252-5.5Z" transform="translate(-509.014 -228.333)" fill="#4fc3f7"/><path d="M581.586,388.845l4.606,2.685,9.833-20.055-7.252-5.5Z" transform="translate(-510.288 -223.76)" fill="#81d4fa"/><path d="M551.813,402.187l42.254-14.711-4.606-2.685-44.43,18.295Z" transform="translate(-518.164 -219.706)" fill="#4fc3f7"/><path d="M614.308,409.769h-8.131l-8.46-16.919,6.867,3.428Z" transform="translate(-506.812 -217.97)" fill="#4fc3f7"/><g transform="translate(74.624 40.288)"><path d="M585.907,282.558l-1.585,19.168,12.843,2.583,7.8-22.193Z" transform="translate(-584.322 -282.116)" fill="#e1f5fe"/><path d="M585.9,302.815l-1.575-4.565,12.843,2.583,1.637,5.207Z" transform="translate(-584.322 -278.64)" fill="#4fc3f7"/><path d="M602.687,282.116l2.756,7.3-8.917,20.1-1.637-5.207Z" transform="translate(-582.045 -282.116)" fill="#81d4fa"/></g><g transform="translate(86.439 136.168)"><path d="M600.348,374.066,622.793,361l-6.077,20.967,4.558,7.951-27.231-2.177Z" transform="translate(-594.043 -361)" fill="#e1f5fe"/><path d="M600.307,387.862,594.043,383l27.231,2.177,2.937,2.685Z" transform="translate(-594.043 -356.26)" fill="#4fc3f7"/><path d="M618.774,361l3.241,6.049-5.672,13.6,3.849,11.952-2.937-2.685-4.558-7.951Z" transform="translate(-590.024 -361)" fill="#81d4fa"/></g></g></g></g></svg>