<svg xmlns="http://www.w3.org/2000/svg" width="45" height="44" viewBox="0 0 45 44"><g transform="translate(-143 -1402)"><g transform="translate(152.102 1409.591)"><g transform="translate(0 0)"><g transform="translate(0 0)"><path d="M290.179,198.75a.456.456,0,0,0,.613.2,39.034,39.034,0,0,1,4.029-1.793.456.456,0,0,0-.275-.869,39.053,39.053,0,0,0-4.167,1.85A.456.456,0,0,0,290.179,198.75Z" transform="translate(-274.649 -185.794)" fill="#30b199"/><path d="M290.586,96.6a.454.454,0,0,0,.206-.05,39.039,39.039,0,0,1,4.029-1.793.456.456,0,0,0-.275-.869,39.055,39.055,0,0,0-4.167,1.85.455.455,0,0,0,.207.861Z" transform="translate(-274.649 -88.859)" fill="#30b199"/><path d="M26.867,6.83a.455.455,0,0,0-.455.455V25.043a1.368,1.368,0,0,1-1.366,1.366H14.117V25.362a13.418,13.418,0,0,1,4.1-.774,23.486,23.486,0,0,1,6.687.887.455.455,0,0,0,.6-.432V5.009a.455.455,0,0,0-.357-.444s-.357-.08-.967-.192a.455.455,0,0,0-.165.9c.233.043.428.081.578.111V24.438a25.715,25.715,0,0,0-6.375-.761,14.3,14.3,0,0,0-4.536.872,10.667,10.667,0,0,0-4.116-.872,30.684,30.684,0,0,0-6.83.78V5.361a29.971,29.971,0,0,1,6.83-.808,9.872,9.872,0,0,1,3.643.75V23.222a.455.455,0,0,0,.69.39,52.13,52.13,0,0,1,8.561-4.056.455.455,0,0,0,.311-.432V.455a.456.456,0,0,0-.616-.427,48.437,48.437,0,0,0-7.366,3.683.455.455,0,0,0,.483.772,48.667,48.667,0,0,1,6.589-3.363V18.8a51.027,51.027,0,0,0-7.741,3.633V5.009a.456.456,0,0,0-.252-.408,10.544,10.544,0,0,0-4.3-.958,29.552,29.552,0,0,0-7.411.928.455.455,0,0,0-.33.438V25.044a.455.455,0,0,0,.455.455.449.449,0,0,0,.125-.018,29.25,29.25,0,0,1,7.161-.893,9.85,9.85,0,0,1,3.643.751v1.07H2.279A1.368,1.368,0,0,1,.913,25.044V7.286a.455.455,0,1,0-.911,0V25.044A2.279,2.279,0,0,0,2.279,27.32H25.045a2.279,2.279,0,0,0,2.277-2.277V7.286A.455.455,0,0,0,26.867,6.83Z" transform="translate(-0.002 0)" fill="#30b199"/><path d="M290.179,147.55a.456.456,0,0,0,.613.2,39.038,39.038,0,0,1,4.029-1.793.456.456,0,0,0-.275-.869,39.06,39.06,0,0,0-4.167,1.85A.456.456,0,0,0,290.179,147.55Z" transform="translate(-274.649 -137.326)" fill="#30b199"/><path d="M290.179,249.95a.456.456,0,0,0,.613.2,39.034,39.034,0,0,1,4.029-1.793.456.456,0,0,0-.275-.869,39.057,39.057,0,0,0-4.167,1.85A.456.456,0,0,0,290.179,249.95Z" transform="translate(-274.649 -234.262)" fill="#30b199"/><path d="M91.812,153.9a14.451,14.451,0,0,0-6.141.217.455.455,0,0,0,.118.9.463.463,0,0,0,.118-.015,13.722,13.722,0,0,1,5.7-.21.455.455,0,1,0,.208-.887Z" transform="translate(-80.78 -145.446)" fill="#30b199"/><path d="M91.812,205.1a14.46,14.46,0,0,0-6.141.217.455.455,0,0,0,.118.9.463.463,0,0,0,.118-.015,13.723,13.723,0,0,1,5.7-.21.455.455,0,1,0,.208-.887Z" transform="translate(-80.78 -193.918)" fill="#30b199"/><path d="M290.179,301.15a.456.456,0,0,0,.613.2,39.041,39.041,0,0,1,4.029-1.793.456.456,0,0,0-.275-.869,39.057,39.057,0,0,0-4.167,1.85A.456.456,0,0,0,290.179,301.15Z" transform="translate(-274.649 -282.73)" fill="#30b199"/><path d="M91.812,256.3a14.451,14.451,0,0,0-6.141.217.456.456,0,0,0,.118.9.462.462,0,0,0,.118-.016,13.722,13.722,0,0,1,5.7-.21.455.455,0,1,0,.208-.887Z" transform="translate(-80.78 -242.384)" fill="#30b199"/><path d="M91.812,358.7a14.451,14.451,0,0,0-6.141.217.456.456,0,0,0,.118.9.462.462,0,0,0,.118-.016,13.721,13.721,0,0,1,5.7-.21.455.455,0,1,0,.208-.887Z" transform="translate(-80.78 -339.318)" fill="#30b199"/><path d="M91.812,307.495a14.443,14.443,0,0,0-6.141.217.456.456,0,0,0,.118.9.462.462,0,0,0,.118-.016,13.722,13.722,0,0,1,5.7-.21.455.455,0,1,0,.208-.887Z" transform="translate(-80.78 -290.849)" fill="#30b199"/></g></g></g><g transform="translate(143 1402)" fill="none"><path d="M22.5,0A22.254,22.254,0,0,1,45,22,22.254,22.254,0,0,1,22.5,44,22.254,22.254,0,0,1,0,22,22.254,22.254,0,0,1,22.5,0Z" stroke="none"/><path d="M 22.5 2 C 19.72611045837402 2 17.03664970397949 2.530601501464844 14.5063304901123 3.577049255371094 C 12.06417846679688 4.587039947509766 9.871208190917969 6.032630920410156 7.988330841064453 7.873661041259766 C 6.10858154296875 9.711639404296875 4.633399963378906 11.85044097900391 3.603778839111328 14.23064994812012 C 2.539588928222656 16.69076919555664 2 19.30475044250488 2 22 C 2 24.69524002075195 2.539588928222656 27.30923080444336 3.603778839111328 29.76934051513672 C 4.633399963378906 32.14955139160156 6.10858154296875 34.28834915161133 7.988330841064453 36.1263313293457 C 9.871208190917969 37.96736907958984 12.06417846679688 39.41296005249023 14.5063304901123 40.42295074462891 C 17.03664970397949 41.46939849853516 19.72611045837402 42 22.5 42 C 25.27388954162598 42 27.96335029602051 41.46939849853516 30.49367141723633 40.42295074462891 C 32.93582153320313 39.41296005249023 35.12879180908203 37.96736907958984 37.01166915893555 36.1263313293457 C 38.89141845703125 34.28834915161133 40.36660003662109 32.14955139160156 41.39622116088867 29.76934051513672 C 42.46041107177734 27.30923080444336 43 24.69524002075195 43 22 C 43 19.30475044250488 42.46041107177734 16.69076919555664 41.39622116088867 14.23064994812012 C 40.36660003662109 11.85044097900391 38.89141845703125 9.711639404296875 37.01166915893555 7.873661041259766 C 35.12879180908203 6.032630920410156 32.93582153320313 4.587039947509766 30.49367141723633 3.577049255371094 C 27.96335029602051 2.530601501464844 25.27388954162598 2 22.5 2 M 22.5 0 C 34.92641067504883 0 45 9.8497314453125 45 22 C 45 34.15026092529297 34.92641067504883 44 22.5 44 C 10.07358932495117 44 0 34.15026092529297 0 22 C 0 9.8497314453125 10.07358932495117 0 22.5 0 Z" stroke="none" fill="#fff"/></g></g></svg>