<svg xmlns="http://www.w3.org/2000/svg" width="194.8" height="49.97" viewBox="0 0 194.8 49.97"><path d="M57.71,19.91v9.97H55.3V19.91Z" fill="#fff"/><path d="M68.71,29.88H66.3l-4.03-6.12v6.12H59.86V19.91h2.41l4.03,6.18V19.91h2.41v9.97Z" fill="#fff"/><path d="M77.62,28.52a2.909,2.909,0,0,1-1.18,1.06,4.205,4.205,0,0,1-1.9.39,4.416,4.416,0,0,1-2.76-.82,3,3,0,0,1-1.19-2.28h2.57a1.37,1.37,0,0,0,.4.89,1.209,1.209,0,0,0,.88.32,1.012,1.012,0,0,0,.73-.25.9.9,0,0,0,.27-.68.852.852,0,0,0-.25-.63,1.945,1.945,0,0,0-.61-.42c-.25-.1-.58-.23-1.02-.38a11.759,11.759,0,0,1-1.54-.63,2.837,2.837,0,0,1-1.03-.9,2.594,2.594,0,0,1-.43-1.56,2.66,2.66,0,0,1,.45-1.54,2.883,2.883,0,0,1,1.25-.99,4.559,4.559,0,0,1,1.83-.35,4.054,4.054,0,0,1,2.64.79,3.053,3.053,0,0,1,1.11,2.17H75.23a1.354,1.354,0,0,0-.36-.78,1.057,1.057,0,0,0-.78-.29,1,1,0,0,0-.68.23.836.836,0,0,0-.26.66.847.847,0,0,0,.23.6,1.807,1.807,0,0,0,.59.4q.345.15,1.02.39a12.255,12.255,0,0,1,1.57.64,3.025,3.025,0,0,1,1.04.92,2.64,2.64,0,0,1,.44,1.58A2.921,2.921,0,0,1,77.62,28.52Z" fill="#fff"/><path d="M87,19.91v1.92H84.3v8.05H81.87V21.83H79.19V19.91H87Z" fill="#fff"/><path d="M90.91,19.91v9.97H88.5V19.91Z" fill="#fff"/><path d="M100.22,19.91v1.92H97.51v8.05H95.08V21.83H92.4V19.91h7.82Z" fill="#fff"/><path d="M104.06,19.91v5.75a2.3,2.3,0,0,0,.44,1.51,1.86,1.86,0,0,0,2.58,0,2.249,2.249,0,0,0,.44-1.51V19.91h2.41v5.75a4.734,4.734,0,0,1-.55,2.38,3.608,3.608,0,0,1-1.5,1.45,4.7,4.7,0,0,1-2.15.49,4.536,4.536,0,0,1-2.12-.48,3.415,3.415,0,0,1-1.44-1.45,4.955,4.955,0,0,1-.52-2.38V19.92h2.41Z" fill="#fff"/><path d="M119.19,19.91v1.92h-2.71v8.05h-2.43V21.83h-2.68V19.91h7.82Z" fill="#fff"/><path d="M127.99,20.41a4.725,4.725,0,0,1,1.81,1.82,5.241,5.241,0,0,1,.66,2.63,5.183,5.183,0,0,1-.67,2.64,4.846,4.846,0,0,1-1.82,1.83,5.256,5.256,0,0,1-5.1,0,4.846,4.846,0,0,1-1.82-1.83,5.517,5.517,0,0,1,0-5.27,4.819,4.819,0,0,1,1.82-1.82,5.295,5.295,0,0,1,5.12,0Zm-4.45,2.35a2.968,2.968,0,0,0-.7,2.09,2.985,2.985,0,0,0,.7,2.09,2.656,2.656,0,0,0,3.76,0,2.99,2.99,0,0,0,.71-2.09,3,3,0,0,0-.7-2.09,2.4,2.4,0,0,0-1.88-.78A2.476,2.476,0,0,0,123.54,22.76Z" fill="#fff"/><path d="M140.71,29.88l-2.16-3.77H138v3.77h-2.41V19.91h4.12a4.453,4.453,0,0,1,2,.41,2.915,2.915,0,0,1,1.23,1.12,3.234,3.234,0,0,1,.41,1.63,2.913,2.913,0,0,1-.6,1.85,3.007,3.007,0,0,1-1.74,1.04l2.37,3.92Zm-2.7-5.42h1.5a1.526,1.526,0,0,0,1.06-.32,1.2,1.2,0,0,0,.34-.94,1.244,1.244,0,0,0-.35-.93,1.427,1.427,0,0,0-1.05-.34h-1.5v2.53Z" fill="#fff"/><path d="M151.22,28.06h-3.74l-.62,1.82h-2.54l3.65-9.9h2.78l3.65,9.9h-2.57Zm-.62-1.83-1.24-3.67-1.25,3.67Z" fill="#fff"/><path d="M158.23,28.03h3.22v1.85h-5.63V19.91h2.41Z" fill="#fff"/><path d="M169.8,28.52a2.909,2.909,0,0,1-1.18,1.06,4.205,4.205,0,0,1-1.9.39,4.416,4.416,0,0,1-2.76-.82,3,3,0,0,1-1.19-2.28h2.57a1.37,1.37,0,0,0,.4.89,1.209,1.209,0,0,0,.88.32,1.012,1.012,0,0,0,.73-.25.9.9,0,0,0,.27-.68.852.852,0,0,0-.25-.63,1.945,1.945,0,0,0-.61-.42q-.36-.165-1.02-.39a11.758,11.758,0,0,1-1.54-.63,2.837,2.837,0,0,1-1.03-.9,2.594,2.594,0,0,1-.43-1.56,2.66,2.66,0,0,1,.45-1.54,2.883,2.883,0,0,1,1.25-.99,4.559,4.559,0,0,1,1.83-.35,4.054,4.054,0,0,1,2.64.79,3.053,3.053,0,0,1,1.11,2.17h-2.61a1.354,1.354,0,0,0-.36-.78,1.057,1.057,0,0,0-.78-.29,1,1,0,0,0-.68.23.836.836,0,0,0-.26.66.847.847,0,0,0,.23.6,1.807,1.807,0,0,0,.59.4q.345.15,1.02.39a12.255,12.255,0,0,1,1.57.64,3.025,3.025,0,0,1,1.04.92,2.64,2.64,0,0,1,.44,1.58A2.833,2.833,0,0,1,169.8,28.52Z" fill="#fff"/><path d="M174.44,21.83v2.09h3.37v1.82h-3.37v2.21h3.79v1.93h-6.21V19.91h6.21v1.92Z" fill="#fff"/><path d="M186.58,19.91v1.92h-4.09v2.19h3.16v1.83h-3.16v4.03h-2.41V19.91Z" fill="#fff"/><path d="M194.8,19.91v1.92h-4.09v2.19h3.16v1.83h-3.16v4.03H188.3V19.91Z" fill="#fff"/><path d="M0,0H33.14L25.18,9.04H9.04v3.29H22.28l-7.96,9.04H9.04v5.99L0,37.64Z" fill="#fff"/><path d="M14.43,12.33H47.57l-7.96,9.04H23.47v3.29H36.71L28.74,33.7H23.47v5.99L14.43,49.97Z" fill="#fff"/></svg>