<svg xmlns="http://www.w3.org/2000/svg" width="45" height="44" viewBox="0 0 45 44"><g transform="translate(-143 -1402)"><g transform="translate(143 1402)" fill="none" stroke="#30b199" stroke-width="2"><ellipse cx="22.5" cy="22" rx="22.5" ry="22" stroke="none"/><ellipse cx="22.5" cy="22" rx="21.5" ry="21" fill="none"/></g><path d="M24.47,3H3.8A2.3,2.3,0,0,0,1.5,5.3V19.079a2.3,2.3,0,0,0,2.3,2.3h8.04v2.3H9.54v2.3h9.188v-2.3h-2.3v-2.3h8.04a2.3,2.3,0,0,0,2.3-2.3V5.3A2.3,2.3,0,0,0,24.47,3Zm0,16.079H3.8V5.3H24.47Z" transform="translate(151.366 1411.515)" fill="#123352"/></g></svg>